<mxfile>
    <diagram id="xrSwx8evdAs3QqDWmsGX" name="Page-1">
        <mxGraphModel dx="1221" dy="469" grid="1" gridSize="10" guides="1" tooltips="1" connect="1" arrows="1" fold="1" page="1" pageScale="1" pageWidth="850" pageHeight="1100" math="0" shadow="0">
            <root>
                <mxCell id="0"/>
                <mxCell id="1" parent="0"/>
                <mxCell id="17" value="Order" style="swimlane;fontStyle=1;align=center;verticalAlign=top;childLayout=stackLayout;horizontal=1;startSize=26;horizontalStack=0;resizeParent=1;resizeParentMax=0;resizeLast=0;collapsible=1;marginBottom=0;" parent="1" vertex="1">
                    <mxGeometry x="-110" y="400" width="650" height="320" as="geometry"/>
                </mxCell>
                <mxCell id="18" value="- orderId: String [ ]&#10;- furnituteCategory: String&#10;- type: String&#10;- items: int&#10;- price: int&#10;- facultyInfo: FacultyInfo&#10;- desks: Desks [ ]&#10;- chairs: Chair [ ]&#10;- lamps: Lamp [ ]&#10;- filings: Filing [ ]&#10;-  idOrderedItems: String [ ]" style="text;strokeColor=none;fillColor=none;align=left;verticalAlign=top;spacingLeft=4;spacingRight=4;overflow=hidden;rotatable=0;points=[[0,0.5],[1,0.5]];portConstraint=eastwest;" parent="17" vertex="1">
                    <mxGeometry y="26" width="650" height="164" as="geometry"/>
                </mxCell>
                <mxCell id="19" value="" style="line;strokeWidth=1;fillColor=none;align=left;verticalAlign=middle;spacingTop=-1;spacingLeft=3;spacingRight=3;rotatable=0;labelPosition=right;points=[];portConstraint=eastwest;" parent="17" vertex="1">
                    <mxGeometry y="190" width="650" height="8" as="geometry"/>
                </mxCell>
                <mxCell id="20" value="+ Order()&#10;+ writeOrder()&#10;+ readOrder()&#10;+ calculateFurnitreCost()&#10;+ generalSelect()&#10;+ createConnection()&#10;+ close()" style="text;strokeColor=none;fillColor=none;align=left;verticalAlign=top;spacingLeft=4;spacingRight=4;overflow=hidden;rotatable=0;points=[[0,0.5],[1,0.5]];portConstraint=eastwest;" parent="17" vertex="1">
                    <mxGeometry y="198" width="650" height="122" as="geometry"/>
                </mxCell>
                <mxCell id="21" value="Chair&#10;" style="swimlane;fontStyle=1;align=center;verticalAlign=top;childLayout=stackLayout;horizontal=1;startSize=26;horizontalStack=0;resizeParent=1;resizeParentMax=0;resizeLast=0;collapsible=1;marginBottom=0;" parent="1" vertex="1">
                    <mxGeometry x="510" y="800" width="570" height="220" as="geometry"/>
                </mxCell>
                <mxCell id="22" value="- legs: char&#10;- arms: char&#10;- seat: char&#10;- cushion: char&#10; " style="text;strokeColor=none;fillColor=none;align=left;verticalAlign=top;spacingLeft=4;spacingRight=4;overflow=hidden;rotatable=0;points=[[0,0.5],[1,0.5]];portConstraint=eastwest;" parent="21" vertex="1">
                    <mxGeometry y="26" width="570" height="84" as="geometry"/>
                </mxCell>
                <mxCell id="23" value="" style="line;strokeWidth=1;fillColor=none;align=left;verticalAlign=middle;spacingTop=-1;spacingLeft=3;spacingRight=3;rotatable=0;labelPosition=right;points=[];portConstraint=eastwest;" parent="21" vertex="1">
                    <mxGeometry y="110" width="570" height="8" as="geometry"/>
                </mxCell>
                <mxCell id="24" value="+ Chair()&#10;+ Chair(String : id, String: type, char: legs, char: arms, char: seat, char: cushion, int: price, String: manuId)" style="text;strokeColor=none;fillColor=none;align=left;verticalAlign=top;spacingLeft=4;spacingRight=4;overflow=hidden;rotatable=0;points=[[0,0.5],[1,0.5]];portConstraint=eastwest;" parent="21" vertex="1">
                    <mxGeometry y="118" width="570" height="102" as="geometry"/>
                </mxCell>
                <mxCell id="29" value="Desk&#10;" style="swimlane;fontStyle=1;align=center;verticalAlign=top;childLayout=stackLayout;horizontal=1;startSize=26;horizontalStack=0;resizeParent=1;resizeParentMax=0;resizeLast=0;collapsible=1;marginBottom=0;" parent="1" vertex="1">
                    <mxGeometry x="-720" y="760" width="500" height="150" as="geometry"/>
                </mxCell>
                <mxCell id="30" value="- legs: char&#10;- top: char&#10;- drawer: char&#10;" style="text;strokeColor=none;fillColor=none;align=left;verticalAlign=top;spacingLeft=4;spacingRight=4;overflow=hidden;rotatable=0;points=[[0,0.5],[1,0.5]];portConstraint=eastwest;" parent="29" vertex="1">
                    <mxGeometry y="26" width="500" height="54" as="geometry"/>
                </mxCell>
                <mxCell id="31" value="" style="line;strokeWidth=1;fillColor=none;align=left;verticalAlign=middle;spacingTop=-1;spacingLeft=3;spacingRight=3;rotatable=0;labelPosition=right;points=[];portConstraint=eastwest;" parent="29" vertex="1">
                    <mxGeometry y="80" width="500" height="8" as="geometry"/>
                </mxCell>
                <mxCell id="32" value="+ Desk()&#10;+ Desk(String: id, String: type, char: legs, char: top, char: drawer, int: price, String: manuID)" style="text;strokeColor=none;fillColor=none;align=left;verticalAlign=top;spacingLeft=4;spacingRight=4;overflow=hidden;rotatable=0;points=[[0,0.5],[1,0.5]];portConstraint=eastwest;" parent="29" vertex="1">
                    <mxGeometry y="88" width="500" height="62" as="geometry"/>
                </mxCell>
                <mxCell id="33" value="FacuiltyInfo" style="swimlane;fontStyle=1;align=center;verticalAlign=top;childLayout=stackLayout;horizontal=1;startSize=26;horizontalStack=0;resizeParent=1;resizeParentMax=0;resizeLast=0;collapsible=1;marginBottom=0;" parent="1" vertex="1">
                    <mxGeometry x="610" y="413" width="440" height="190" as="geometry"/>
                </mxCell>
                <mxCell id="34" value="- FacultyName: String&#10;- Contact: String&#10;- Date: String&#10;" style="text;strokeColor=none;fillColor=none;align=left;verticalAlign=top;spacingLeft=4;spacingRight=4;overflow=hidden;rotatable=0;points=[[0,0.5],[1,0.5]];portConstraint=eastwest;" parent="33" vertex="1">
                    <mxGeometry y="26" width="440" height="74" as="geometry"/>
                </mxCell>
                <mxCell id="35" value="" style="line;strokeWidth=1;fillColor=none;align=left;verticalAlign=middle;spacingTop=-1;spacingLeft=3;spacingRight=3;rotatable=0;labelPosition=right;points=[];portConstraint=eastwest;" parent="33" vertex="1">
                    <mxGeometry y="100" width="440" height="8" as="geometry"/>
                </mxCell>
                <mxCell id="36" value="+ FacultyInfo(): &#10;+ FacultyInfo(String: FacultyName, String: Contact, String: Date, Order: order)&#10;&#10;&#10;&#10;&#10; " style="text;strokeColor=none;fillColor=none;align=left;verticalAlign=top;spacingLeft=4;spacingRight=4;overflow=hidden;rotatable=0;points=[[0,0.5],[1,0.5]];portConstraint=eastwest;" parent="33" vertex="1">
                    <mxGeometry y="108" width="440" height="82" as="geometry"/>
                </mxCell>
                <mxCell id="37" value="Lamp&#10;" style="swimlane;fontStyle=1;align=center;verticalAlign=top;childLayout=stackLayout;horizontal=1;startSize=26;horizontalStack=0;resizeParent=1;resizeParentMax=0;resizeLast=0;collapsible=1;marginBottom=0;" parent="1" vertex="1">
                    <mxGeometry x="-610" y="460" width="430" height="130" as="geometry"/>
                </mxCell>
                <mxCell id="38" value="- base: char&#10;- bulb: char" style="text;strokeColor=none;fillColor=none;align=left;verticalAlign=top;spacingLeft=4;spacingRight=4;overflow=hidden;rotatable=0;points=[[0,0.5],[1,0.5]];portConstraint=eastwest;" parent="37" vertex="1">
                    <mxGeometry y="26" width="430" height="44" as="geometry"/>
                </mxCell>
                <mxCell id="39" value="" style="line;strokeWidth=1;fillColor=none;align=left;verticalAlign=middle;spacingTop=-1;spacingLeft=3;spacingRight=3;rotatable=0;labelPosition=right;points=[];portConstraint=eastwest;" parent="37" vertex="1">
                    <mxGeometry y="70" width="430" height="8" as="geometry"/>
                </mxCell>
                <mxCell id="40" value="+ Lamp()&#10;+ Lamp(String id, String: type, String manuId, int: price, char: base, char: bulb)" style="text;strokeColor=none;fillColor=none;align=left;verticalAlign=top;spacingLeft=4;spacingRight=4;overflow=hidden;rotatable=0;points=[[0,0.5],[1,0.5]];portConstraint=eastwest;" parent="37" vertex="1">
                    <mxGeometry y="78" width="430" height="52" as="geometry"/>
                </mxCell>
                <mxCell id="41" value="Filing" style="swimlane;fontStyle=1;align=center;verticalAlign=top;childLayout=stackLayout;horizontal=1;startSize=26;horizontalStack=0;resizeParent=1;resizeParentMax=0;resizeLast=0;collapsible=1;marginBottom=0;" parent="1" vertex="1">
                    <mxGeometry x="-30" y="782" width="520" height="128" as="geometry"/>
                </mxCell>
                <mxCell id="42" value="- rails: char&#10;- drawers: char&#10;- cabinet: char&#10;" style="text;strokeColor=none;fillColor=none;align=left;verticalAlign=top;spacingLeft=4;spacingRight=4;overflow=hidden;rotatable=0;points=[[0,0.5],[1,0.5]];portConstraint=eastwest;" parent="41" vertex="1">
                    <mxGeometry y="26" width="520" height="54" as="geometry"/>
                </mxCell>
                <mxCell id="43" value="" style="line;strokeWidth=1;fillColor=none;align=left;verticalAlign=middle;spacingTop=-1;spacingLeft=3;spacingRight=3;rotatable=0;labelPosition=right;points=[];portConstraint=eastwest;" parent="41" vertex="1">
                    <mxGeometry y="80" width="520" height="8" as="geometry"/>
                </mxCell>
                <mxCell id="44" value="+ Filing()&#10;+ Filing(String: id, String type, String manuId, int: price, char: rails, char drawers, char cabinet)" style="text;strokeColor=none;fillColor=none;align=left;verticalAlign=top;spacingLeft=4;spacingRight=4;overflow=hidden;rotatable=0;points=[[0,0.5],[1,0.5]];portConstraint=eastwest;" parent="41" vertex="1">
                    <mxGeometry y="88" width="520" height="40" as="geometry"/>
                </mxCell>
                <mxCell id="72" value="Office Furniture&#10;" style="swimlane;fontStyle=3;align=center;verticalAlign=top;childLayout=stackLayout;horizontal=1;startSize=26;horizontalStack=0;resizeParent=1;resizeParentMax=0;resizeLast=0;collapsible=1;marginBottom=0;" parent="1" vertex="1">
                    <mxGeometry x="20" y="1010" width="250" height="270" as="geometry"/>
                </mxCell>
                <mxCell id="73" value="- id: String&#10;- type: String&#10;- manuId: String&#10;- price: int&#10; &#10;" style="text;strokeColor=none;fillColor=none;align=left;verticalAlign=top;spacingLeft=4;spacingRight=4;overflow=hidden;rotatable=0;points=[[0,0.5],[1,0.5]];portConstraint=eastwest;" parent="72" vertex="1">
                    <mxGeometry y="26" width="250" height="124" as="geometry"/>
                </mxCell>
                <mxCell id="74" value="" style="line;strokeWidth=1;fillColor=none;align=left;verticalAlign=middle;spacingTop=-1;spacingLeft=3;spacingRight=3;rotatable=0;labelPosition=right;points=[];portConstraint=eastwest;" parent="72" vertex="1">
                    <mxGeometry y="150" width="250" height="8" as="geometry"/>
                </mxCell>
                <mxCell id="75" value="+ OfficeFurniture()&#10;+ removeDesk(String: id, String: furniture) &#10;+ populateDesks( )&#10;+ populateLamps( )&#10;+ populateChairs( )" style="text;strokeColor=none;fillColor=none;align=left;verticalAlign=top;spacingLeft=4;spacingRight=4;overflow=hidden;rotatable=0;points=[[0,0.5],[1,0.5]];portConstraint=eastwest;" parent="72" vertex="1">
                    <mxGeometry y="158" width="250" height="112" as="geometry"/>
                </mxCell>
                <mxCell id="82" value="Extends" style="endArrow=block;endSize=16;endFill=0;html=1;entryX=0;entryY=0.085;entryDx=0;entryDy=0;entryPerimeter=0;" parent="1" source="29" target="73" edge="1">
                    <mxGeometry width="160" relative="1" as="geometry">
                        <mxPoint x="250" y="940" as="sourcePoint"/>
                        <mxPoint x="50" y="1070" as="targetPoint"/>
                        <Array as="points"/>
                    </mxGeometry>
                </mxCell>
                <mxCell id="84" value="Extends" style="endArrow=block;endSize=16;endFill=0;html=1;entryX=0;entryY=0;entryDx=0;entryDy=0;exitX=0.745;exitY=1.009;exitDx=0;exitDy=0;exitPerimeter=0;" edge="1" parent="1" source="40" target="72">
                    <mxGeometry width="160" relative="1" as="geometry">
                        <mxPoint x="-400" y="500" as="sourcePoint"/>
                        <mxPoint x="620" y="1030" as="targetPoint"/>
                    </mxGeometry>
                </mxCell>
                <mxCell id="85" value="Extends" style="endArrow=block;endSize=16;endFill=0;html=1;" parent="1" source="41" target="72" edge="1">
                    <mxGeometry width="160" relative="1" as="geometry">
                        <mxPoint x="250" y="820" as="sourcePoint"/>
                        <mxPoint x="410" y="820" as="targetPoint"/>
                    </mxGeometry>
                </mxCell>
                <mxCell id="87" value="Extends" style="endArrow=block;endSize=16;endFill=0;html=1;exitX=0.003;exitY=0.774;exitDx=0;exitDy=0;exitPerimeter=0;entryX=0.999;entryY=0.039;entryDx=0;entryDy=0;entryPerimeter=0;" parent="1" source="24" target="72" edge="1">
                    <mxGeometry width="160" relative="1" as="geometry">
                        <mxPoint x="620" y="940" as="sourcePoint"/>
                        <mxPoint x="780" y="940" as="targetPoint"/>
                    </mxGeometry>
                </mxCell>
                <mxCell id="107" value="" style="endArrow=diamondThin;endFill=1;endSize=24;html=1;exitX=0.872;exitY=0.005;exitDx=0;exitDy=0;exitPerimeter=0;entryX=-0.004;entryY=0.684;entryDx=0;entryDy=0;entryPerimeter=0;" edge="1" parent="1" source="29" target="20">
                    <mxGeometry width="160" relative="1" as="geometry">
                        <mxPoint x="-200" y="730" as="sourcePoint"/>
                        <mxPoint x="-40" y="730" as="targetPoint"/>
                    </mxGeometry>
                </mxCell>
                <mxCell id="108" value="" style="endArrow=diamondThin;endFill=1;endSize=24;html=1;entryX=-0.004;entryY=0.692;entryDx=0;entryDy=0;entryPerimeter=0;" edge="1" parent="1" target="18">
                    <mxGeometry width="160" relative="1" as="geometry">
                        <mxPoint x="-170" y="539" as="sourcePoint"/>
                        <mxPoint x="-102.59999999999991" y="691.4480000000001" as="targetPoint"/>
                    </mxGeometry>
                </mxCell>
                <mxCell id="109" value="" style="endArrow=diamondThin;endFill=1;endSize=24;html=1;exitX=0.083;exitY=0.01;exitDx=0;exitDy=0;exitPerimeter=0;entryX=0.203;entryY=1.033;entryDx=0;entryDy=0;entryPerimeter=0;" edge="1" parent="1" source="41" target="20">
                    <mxGeometry width="160" relative="1" as="geometry">
                        <mxPoint x="-274" y="770.75" as="sourcePoint"/>
                        <mxPoint x="-102.59999999999991" y="691.4480000000001" as="targetPoint"/>
                    </mxGeometry>
                </mxCell>
                <mxCell id="110" value="" style="endArrow=diamondThin;endFill=1;endSize=24;html=1;exitX=0;exitY=0;exitDx=0;exitDy=0;entryX=0.954;entryY=0.992;entryDx=0;entryDy=0;entryPerimeter=0;" edge="1" parent="1" source="21" target="20">
                    <mxGeometry width="160" relative="1" as="geometry">
                        <mxPoint x="23.160000000000082" y="793.28" as="sourcePoint"/>
                        <mxPoint x="31.950000000000045" y="734.0260000000001" as="targetPoint"/>
                    </mxGeometry>
                </mxCell>
                <mxCell id="112" value="" style="endArrow=diamondThin;endFill=1;endSize=24;html=1;entryX=1.003;entryY=0.575;entryDx=0;entryDy=0;entryPerimeter=0;" edge="1" parent="1" source="34" target="18">
                    <mxGeometry width="160" relative="1" as="geometry">
                        <mxPoint x="520" y="810" as="sourcePoint"/>
                        <mxPoint x="520.0999999999999" y="729.0239999999999" as="targetPoint"/>
                    </mxGeometry>
                </mxCell>
            </root>
        </mxGraphModel>
    </diagram>
</mxfile>